<svg width="24" height="24" viewBox="0 0 24 24" fill="none" xmlns="http://www.w3.org/2000/svg">
<path d="M12 12.75C10.8133 12.75 9.65328 12.3981 8.66658 11.7388C7.67989 11.0795 6.91085 10.1425 6.45673 9.0461C6.0026 7.94975 5.88378 6.74335 6.11529 5.57946C6.3468 4.41558 6.91825 3.34648 7.75736 2.50736C8.59648 1.66825 9.66557 1.0968 10.8295 0.865291C11.9933 0.63378 13.1997 0.7526 14.2961 1.20673C15.3925 1.66085 16.3295 2.42989 16.9888 3.41658C17.6481 4.40328 18 5.56332 18 6.75C18 8.3413 17.3679 9.86743 16.2426 10.9926C15.1174 12.1179 13.5913 12.75 12 12.75ZM12 2.25C11.11 2.25 10.24 2.51392 9.49994 3.00839C8.75992 3.50286 8.18314 4.20566 7.84254 5.02793C7.50195 5.85019 7.41284 6.75499 7.58647 7.62791C7.7601 8.50082 8.18869 9.30265 8.81802 9.93198C9.44736 10.5613 10.2492 10.9899 11.1221 11.1635C11.995 11.3372 12.8998 11.2481 13.7221 10.9075C14.5443 10.5669 15.2471 9.99009 15.7416 9.25007C16.2361 8.51005 16.5 7.64002 16.5 6.75C16.5 5.55653 16.0259 4.41194 15.182 3.56802C14.3381 2.72411 13.1935 2.25 12 2.25Z" fill="white"/>
<path d="M17.25 23.2501H6.75C5.75544 23.2501 4.80161 22.855 4.09835 22.1518C3.39509 21.4485 3 20.4947 3 19.5001V16.5001C3.00002 16.37 3.03392 16.242 3.09835 16.129C3.16279 16.0159 3.25554 15.9215 3.3675 15.8551L7.1175 13.6051C7.28669 13.5286 7.47824 13.5177 7.65506 13.5743C7.83189 13.6309 7.98144 13.7511 8.07476 13.9116C8.16808 14.0721 8.19855 14.2615 8.16026 14.4432C8.12197 14.6249 8.01766 14.7859 7.8675 14.8951L4.5 16.9276V19.5001C4.5 20.0968 4.73705 20.6691 5.15901 21.0911C5.58097 21.5131 6.15326 21.7501 6.75 21.7501H17.25C17.8467 21.7501 18.419 21.5131 18.841 21.0911C19.2629 20.6691 19.5 20.0968 19.5 19.5001V16.9276L16.1175 14.8951C16.0219 14.8519 15.9364 14.7891 15.8665 14.7108C15.7967 14.6324 15.7441 14.5403 15.7121 14.4404C15.6801 14.3404 15.6694 14.2349 15.6808 14.1305C15.6921 14.0262 15.7253 13.9254 15.778 13.8347C15.8307 13.744 15.9019 13.6653 15.987 13.6039C16.072 13.5424 16.169 13.4994 16.2717 13.4778C16.3744 13.4561 16.4805 13.4563 16.5831 13.4782C16.6857 13.5002 16.7826 13.5434 16.8675 13.6051L20.6175 15.8551C20.7323 15.9196 20.828 16.0132 20.8951 16.1264C20.9623 16.2396 20.9985 16.3685 21 16.5001V19.5001C21 20.4947 20.6049 21.4485 19.9017 22.1518C19.1984 22.855 18.2446 23.2501 17.25 23.2501Z" fill="white"/>
</svg>
